<mxfile host="Electron" agent="Mozilla/5.0 (Windows NT 10.0; Win64; x64) AppleWebKit/537.36 (KHTML, like Gecko) draw.io/24.7.17 Chrome/128.0.6613.36 Electron/32.0.1 Safari/537.36" version="24.7.17">
  <diagram name="Page-1" id="e0gq06v9-NHDtKQinNfX">
    <mxGraphModel dx="2172" dy="1784" grid="1" gridSize="10" guides="1" tooltips="1" connect="1" arrows="1" fold="1" page="1" pageScale="1" pageWidth="850" pageHeight="1100" math="0" shadow="0">
      <root>
        <mxCell id="0" />
        <mxCell id="1" parent="0" />
        <mxCell id="czQ_E9eJQOLjPPg_yqjg-1" value="User" style="rounded=1;arcSize=10;whiteSpace=wrap;html=1;align=center;rotation=0;" parent="1" vertex="1">
          <mxGeometry x="-739" y="-1061" width="100" height="40" as="geometry" />
        </mxCell>
        <mxCell id="czQ_E9eJQOLjPPg_yqjg-2" value="Wallet" style="rounded=1;arcSize=10;whiteSpace=wrap;html=1;align=center;rotation=0;" parent="1" vertex="1">
          <mxGeometry x="-466" y="-646" width="100" height="40" as="geometry" />
        </mxCell>
        <mxCell id="czQ_E9eJQOLjPPg_yqjg-3" value="ToHave" style="shape=rhombus;perimeter=rhombusPerimeter;whiteSpace=wrap;html=1;align=center;rotation=0;" parent="1" vertex="1">
          <mxGeometry x="-622" y="-657" width="120" height="60" as="geometry" />
        </mxCell>
        <mxCell id="czQ_E9eJQOLjPPg_yqjg-8" value="WalletFlow" style="rounded=1;arcSize=10;whiteSpace=wrap;html=1;align=center;rotation=0;" parent="1" vertex="1">
          <mxGeometry x="-180" y="-647" width="100" height="40" as="geometry" />
        </mxCell>
        <mxCell id="czQ_E9eJQOLjPPg_yqjg-9" value="ToHave" style="shape=rhombus;perimeter=rhombusPerimeter;whiteSpace=wrap;html=1;align=center;rotation=0;" parent="1" vertex="1">
          <mxGeometry x="-330" y="-657" width="120" height="60" as="geometry" />
        </mxCell>
        <mxCell id="czQ_E9eJQOLjPPg_yqjg-14" value="UserFavoriteCourse" style="shape=ext;margin=3;double=1;whiteSpace=wrap;html=1;align=center;rotation=0;" parent="1" vertex="1">
          <mxGeometry x="-483" y="-772" width="130" height="40" as="geometry" />
        </mxCell>
        <mxCell id="czQ_E9eJQOLjPPg_yqjg-15" value="ToLike" style="shape=rhombus;perimeter=rhombusPerimeter;whiteSpace=wrap;html=1;align=center;rotation=0;" parent="1" vertex="1">
          <mxGeometry x="-597" y="-782" width="70" height="60" as="geometry" />
        </mxCell>
        <mxCell id="czQ_E9eJQOLjPPg_yqjg-20" value="Buy" style="shape=rhombus;perimeter=rhombusPerimeter;whiteSpace=wrap;html=1;align=center;rotation=0;" parent="1" vertex="1">
          <mxGeometry x="-578" y="-902" width="80" height="60" as="geometry" />
        </mxCell>
        <mxCell id="czQ_E9eJQOLjPPg_yqjg-21" value="UserCourse" style="shape=ext;margin=3;double=1;whiteSpace=wrap;html=1;align=center;rotation=0;" parent="1" vertex="1">
          <mxGeometry x="-468" y="-892" width="100" height="40" as="geometry" />
        </mxCell>
        <mxCell id="czQ_E9eJQOLjPPg_yqjg-26" value="DegreeStatus" style="ellipse;whiteSpace=wrap;html=1;align=center;rotation=0;" parent="1" vertex="1">
          <mxGeometry x="-340" y="-980" width="100" height="40" as="geometry" />
        </mxCell>
        <mxCell id="czQ_E9eJQOLjPPg_yqjg-27" value="" style="endArrow=none;html=1;rounded=0;" parent="1" source="czQ_E9eJQOLjPPg_yqjg-26" target="czQ_E9eJQOLjPPg_yqjg-21" edge="1">
          <mxGeometry relative="1" as="geometry">
            <mxPoint x="-388" y="-622" as="sourcePoint" />
            <mxPoint x="-388" y="-782" as="targetPoint" />
          </mxGeometry>
        </mxCell>
        <mxCell id="DHQudMbbfitHnuT3iE8L-2" value="" style="endArrow=none;html=1;rounded=0;" edge="1" parent="1" source="czQ_E9eJQOLjPPg_yqjg-21" target="czQ_E9eJQOLjPPg_yqjg-20">
          <mxGeometry relative="1" as="geometry">
            <mxPoint x="-720" y="-820" as="sourcePoint" />
            <mxPoint x="-560" y="-820" as="targetPoint" />
          </mxGeometry>
        </mxCell>
        <mxCell id="DHQudMbbfitHnuT3iE8L-3" value="N" style="resizable=0;html=1;whiteSpace=wrap;align=right;verticalAlign=bottom;" connectable="0" vertex="1" parent="DHQudMbbfitHnuT3iE8L-2">
          <mxGeometry x="1" relative="1" as="geometry">
            <mxPoint x="7" as="offset" />
          </mxGeometry>
        </mxCell>
        <mxCell id="DHQudMbbfitHnuT3iE8L-4" value="" style="endArrow=none;html=1;rounded=0;" edge="1" parent="1" source="czQ_E9eJQOLjPPg_yqjg-1" target="czQ_E9eJQOLjPPg_yqjg-20">
          <mxGeometry relative="1" as="geometry">
            <mxPoint x="-730" y="-810" as="sourcePoint" />
            <mxPoint x="-570" y="-810" as="targetPoint" />
            <Array as="points">
              <mxPoint x="-689" y="-872" />
            </Array>
          </mxGeometry>
        </mxCell>
        <mxCell id="DHQudMbbfitHnuT3iE8L-5" value="1" style="resizable=0;html=1;whiteSpace=wrap;align=right;verticalAlign=bottom;" connectable="0" vertex="1" parent="DHQudMbbfitHnuT3iE8L-4">
          <mxGeometry x="1" relative="1" as="geometry" />
        </mxCell>
        <mxCell id="DHQudMbbfitHnuT3iE8L-6" value="" style="endArrow=none;html=1;rounded=0;" edge="1" parent="1" source="czQ_E9eJQOLjPPg_yqjg-14" target="czQ_E9eJQOLjPPg_yqjg-15">
          <mxGeometry relative="1" as="geometry">
            <mxPoint x="-760" y="-710" as="sourcePoint" />
            <mxPoint x="-600" y="-710" as="targetPoint" />
          </mxGeometry>
        </mxCell>
        <mxCell id="DHQudMbbfitHnuT3iE8L-7" value="N" style="resizable=0;html=1;whiteSpace=wrap;align=right;verticalAlign=bottom;" connectable="0" vertex="1" parent="DHQudMbbfitHnuT3iE8L-6">
          <mxGeometry x="1" relative="1" as="geometry">
            <mxPoint x="527" y="492" as="offset" />
          </mxGeometry>
        </mxCell>
        <mxCell id="DHQudMbbfitHnuT3iE8L-8" value="" style="endArrow=none;html=1;rounded=0;" edge="1" parent="1" source="czQ_E9eJQOLjPPg_yqjg-1" target="czQ_E9eJQOLjPPg_yqjg-15">
          <mxGeometry relative="1" as="geometry">
            <mxPoint x="-770" y="-760" as="sourcePoint" />
            <mxPoint x="-610" y="-760" as="targetPoint" />
            <Array as="points">
              <mxPoint x="-689" y="-752" />
            </Array>
          </mxGeometry>
        </mxCell>
        <mxCell id="DHQudMbbfitHnuT3iE8L-9" value="1" style="resizable=0;html=1;whiteSpace=wrap;align=right;verticalAlign=bottom;" connectable="0" vertex="1" parent="DHQudMbbfitHnuT3iE8L-8">
          <mxGeometry x="1" relative="1" as="geometry" />
        </mxCell>
        <mxCell id="DHQudMbbfitHnuT3iE8L-10" value="" style="shape=link;html=1;rounded=0;" edge="1" parent="1" target="czQ_E9eJQOLjPPg_yqjg-3">
          <mxGeometry relative="1" as="geometry">
            <mxPoint x="-690" y="-750" as="sourcePoint" />
            <mxPoint x="-630" y="-620" as="targetPoint" />
            <Array as="points">
              <mxPoint x="-690" y="-627" />
            </Array>
          </mxGeometry>
        </mxCell>
        <mxCell id="DHQudMbbfitHnuT3iE8L-11" value="1" style="resizable=0;html=1;whiteSpace=wrap;align=right;verticalAlign=bottom;" connectable="0" vertex="1" parent="DHQudMbbfitHnuT3iE8L-10">
          <mxGeometry x="1" relative="1" as="geometry" />
        </mxCell>
        <mxCell id="DHQudMbbfitHnuT3iE8L-12" value="" style="shape=link;html=1;rounded=0;" edge="1" parent="1" source="czQ_E9eJQOLjPPg_yqjg-2" target="czQ_E9eJQOLjPPg_yqjg-3">
          <mxGeometry relative="1" as="geometry">
            <mxPoint x="-760" y="-550" as="sourcePoint" />
            <mxPoint x="-600" y="-550" as="targetPoint" />
          </mxGeometry>
        </mxCell>
        <mxCell id="DHQudMbbfitHnuT3iE8L-13" value="1" style="resizable=0;html=1;whiteSpace=wrap;align=right;verticalAlign=bottom;" connectable="0" vertex="1" parent="DHQudMbbfitHnuT3iE8L-12">
          <mxGeometry x="1" relative="1" as="geometry" />
        </mxCell>
        <mxCell id="DHQudMbbfitHnuT3iE8L-14" value="" style="endArrow=none;html=1;rounded=0;" edge="1" parent="1" source="czQ_E9eJQOLjPPg_yqjg-8" target="czQ_E9eJQOLjPPg_yqjg-9">
          <mxGeometry relative="1" as="geometry">
            <mxPoint x="-380" y="-520" as="sourcePoint" />
            <mxPoint x="-220" y="-520" as="targetPoint" />
          </mxGeometry>
        </mxCell>
        <mxCell id="DHQudMbbfitHnuT3iE8L-15" value="N" style="resizable=0;html=1;whiteSpace=wrap;align=right;verticalAlign=bottom;" connectable="0" vertex="1" parent="DHQudMbbfitHnuT3iE8L-14">
          <mxGeometry x="1" relative="1" as="geometry">
            <mxPoint x="10" as="offset" />
          </mxGeometry>
        </mxCell>
        <mxCell id="DHQudMbbfitHnuT3iE8L-16" value="" style="endArrow=none;html=1;rounded=0;" edge="1" parent="1" source="czQ_E9eJQOLjPPg_yqjg-2" target="czQ_E9eJQOLjPPg_yqjg-9">
          <mxGeometry relative="1" as="geometry">
            <mxPoint x="-520" y="-570" as="sourcePoint" />
            <mxPoint x="-360" y="-570" as="targetPoint" />
          </mxGeometry>
        </mxCell>
        <mxCell id="DHQudMbbfitHnuT3iE8L-17" value="1" style="resizable=0;html=1;whiteSpace=wrap;align=right;verticalAlign=bottom;" connectable="0" vertex="1" parent="DHQudMbbfitHnuT3iE8L-16">
          <mxGeometry x="1" relative="1" as="geometry" />
        </mxCell>
      </root>
    </mxGraphModel>
  </diagram>
</mxfile>
